<?xml version="1.0" encoding="UTF-8"?>
<svg width="149px" height="98px" viewBox="0 0 149 98" version="1.1" xmlns="http://www.w3.org/2000/svg" xmlns:xlink="http://www.w3.org/1999/xlink">
    <title>akadia-modern-logo</title>
    <defs>
        <radialGradient cx="50%" cy="0%" fx="50%" fy="0%" r="100%" gradientTransform="translate(0.500000,0.000000),scale(0.272352,1.000000),rotate(90.000000),translate(-0.500000,-0.000000)" id="radialGradient-1">
            <stop stop-color="#EBD05E" offset="0%"></stop>
            <stop stop-color="#C8A54C" offset="100%"></stop>
        </radialGradient>
        <radialGradient cx="50%" cy="73.1758391%" fx="50%" fy="73.1758391%" r="100%" gradientTransform="translate(0.500000,0.731758),scale(0.442881,1.000000),rotate(90.000000),translate(-0.500000,-0.731758)" id="radialGradient-2">
            <stop stop-color="#F6DF64" offset="0%"></stop>
            <stop stop-color="#C8A54C" offset="100%"></stop>
        </radialGradient>
        <radialGradient cx="50%" cy="78.0572076%" fx="50%" fy="78.0572076%" r="100%" gradientTransform="translate(0.500000,0.780572),scale(0.964968,1.000000),rotate(90.000000),translate(-0.500000,-0.780572)" id="radialGradient-3">
            <stop stop-color="#F8E165" offset="0%"></stop>
            <stop stop-color="#C8A54C" offset="100%"></stop>
        </radialGradient>
        <linearGradient x1="50%" y1="0%" x2="50%" y2="100%" id="linearGradient-4">
            <stop stop-color="#FEE868" offset="0%"></stop>
            <stop stop-color="#BB9B48" offset="100%"></stop>
        </linearGradient>
    </defs>
    <g id="Page-1" stroke="none" stroke-width="1" fill="none" fill-rule="evenodd">
        <g id="akadia-modern-logo" fill-rule="nonzero">
            <g id="Group-2" transform="translate(0.000000, 47.943690)" fill="#000000">
                <polygon id="Path" points="47.3154179 49.0713351 49.8512899 42.5758322 49.8512899 48.9362679 50.6777963 48.9362679 50.6777963 40.3901999 49.8325057 40.3901999 47.3435942 46.9225392 44.8452907 40.3901999 44 40.3901999 44 48.9362679 44.8171143 48.9362679 44.8171143 42.5758322"></polygon>
                <path d="M61.8716979,40.0563101 L61.9896565,40.0625465 C62.1058888,40.0750194 62.2169425,40.1062016 62.3228174,40.1560932 C62.4639841,40.2226153 62.5867377,40.3182409 62.6910783,40.4429698 C62.7954188,40.5676988 62.8782775,40.7256888 62.9396543,40.9169398 C63.0010311,41.1081909 63.0317195,41.3285454 63.0317195,41.5780033 L63.0317195,47.215752 L63.0259655,47.3973886 C63.0144573,47.5735682 62.9856869,47.7333772 62.9396543,47.8768155 C62.8782775,48.0680666 62.7954188,48.2260566 62.6910783,48.3507855 C62.5867377,48.4755145 62.4639841,48.57114 62.3228174,48.6376621 C62.1816508,48.7041842 62.0312776,48.7374453 61.8716979,48.7374453 L59.1833939,48.7374453 L59.0654353,48.7312088 C58.949203,48.7187359 58.8381494,48.6875537 58.7322744,48.6376621 C58.5911077,48.57114 58.4683541,48.4755145 58.3640136,48.3507855 C58.259673,48.2260566 58.1768143,48.0680666 58.1154375,47.8768155 C58.0540607,47.6855644 58.0233723,47.4652099 58.0233723,47.215752 L58.0233723,41.5780033 L58.0291264,41.3963668 C58.0406345,41.2201871 58.0694049,41.0603781 58.1154375,40.9169398 C58.1768143,40.7256888 58.259673,40.5676988 58.3640136,40.4429698 C58.4683541,40.3182409 58.5911077,40.2226153 58.7322744,40.1560932 C58.873441,40.0895711 59.0238142,40.0563101 59.1833939,40.0563101 L61.8716979,40.0563101 Z M62.1691708,41.3918693 L59.2198108,41.3918693 L59.1681374,41.397732 C59.0727403,41.4211827 59.0250417,41.5149856 59.0250417,41.6791406 L59.0250417,47.4485046 L59.0290166,47.5247194 C59.0449161,47.6654237 59.1085142,47.7357758 59.2198108,47.7357758 L62.1691708,47.7357758 C62.2990169,47.7357758 62.3639399,47.6400188 62.3639399,47.4485046 L62.3639399,41.6791406 L62.359965,41.6029257 C62.3440655,41.4622215 62.2804674,41.3918693 62.1691708,41.3918693 L62.1691708,41.3918693 Z" id="Shape"></path>
                <path d="M74.2193425,40.0563101 L74.3379395,40.0625465 C74.4548009,40.0750194 74.5664556,40.1062016 74.6729037,40.1560932 C74.8148344,40.2226153 74.9382524,40.3182409 75.0431577,40.4429698 C75.1480631,40.5676988 75.2313702,40.7256888 75.2930792,40.9169398 C75.3547882,41.1081909 75.3856427,41.3285454 75.3856427,41.5780033 L75.3856427,47.215752 L75.3798575,47.3973886 C75.3682871,47.5735682 75.339361,47.7333772 75.2930792,47.8768155 C75.2313702,48.0680666 75.1480631,48.2260566 75.0431577,48.3507855 C74.9382524,48.4755145 74.8148344,48.57114 74.6729037,48.6376621 C74.530973,48.7041842 74.3797859,48.7374453 74.2193425,48.7374453 L70.7111853,48.7374453 L70.7111853,40.0563101 L74.2193425,40.0563101 Z M74.1886012,41.3918693 L71.3789649,41.3918693 L71.3789649,47.7357758 L74.1886012,47.7357758 C74.3188493,47.7357758 74.3839733,47.6400188 74.3839733,47.4485046 L74.3839733,41.6791406 L74.3799861,41.6029257 C74.3640374,41.4622215 74.3002424,41.3918693 74.1886012,41.3918693 Z" id="Shape"></path>
                <polygon id="Path" points="87.0717863 48.7374453 87.0717863 47.702195 83.5897925 47.702195 83.5897925 44.7461187 86.2990699 44.7461187 86.2990699 43.7108684 83.5897925 43.7108684 83.5897925 41.0915604 87.0050083 41.0915604 87.0050083 40.0563101 82.7312187 40.0563101 82.7312187 48.7374453"></polygon>
                <path d="M97.4857273,40.0563101 L97.607491,40.0625465 C97.7274727,40.0750194 97.8421088,40.1062016 97.9513991,40.1560932 C98.0971195,40.2226153 98.2238329,40.3182409 98.3315393,40.4429698 C98.4392457,40.5676988 98.5247772,40.7256888 98.5881339,40.9169398 C98.6514906,41.1081909 98.683169,41.3285454 98.683169,41.5780033 L98.683169,43.7108684 L98.6772293,43.892505 C98.6653499,44.0686846 98.6356514,44.2284936 98.5881339,44.3719319 C98.5247772,44.5631829 98.4392457,44.7211729 98.3315393,44.8459019 C98.2238329,44.9706309 98.0971195,45.0662564 97.9513991,45.1327785 C97.8056787,45.1993006 97.6504547,45.2325617 97.4857273,45.2325617 L96.9060135,45.2325617 L99.0918197,48.7374453 L98.0654411,48.7374453 L95.8796349,45.2325617 L94.9387879,45.2325617 L94.9387879,48.7374453 L94.0834725,48.7374453 L94.0834725,40.0563101 L97.4857273,40.0563101 Z M97.7562604,41.3918693 L95.0851419,41.3918693 L95.0851419,44.3968777 L97.7562604,44.3968777 L97.7562604,41.3918693 Z" id="Shape"></path>
                <polygon id="Path" points="106.599729 48.7374453 106.599729 41.9022986 109.947851 48.7374453 110.777963 48.7374453 110.777963 40.0563101 109.947851 40.0563101 109.947851 46.8789839 106.599729 40.0563101 105.769616 40.0563101 105.769616 48.7374453"></polygon>
                <path d="M92.9883139,18.1331048 C94.1569282,18.6339395 93.5893155,20.2032216 92.687813,20.2699996 C91.7529215,20.3367775 89.4156928,19.502053 85.7095159,19.7691649 C82.0033389,20.0362767 77.7629382,22.1397826 74.9582638,24.7107341 C72.1535893,27.2816857 72.4540902,28.9511348 73.1552588,29.8192483 C73.8564274,30.6873619 75.1585977,31.7891982 78.8647746,31.2549745 C82.5709516,30.7207508 88.4140234,28.0496323 91.1185309,24.6773452 C93.8230384,21.305058 96.360601,17.699048 98.163606,12.223255 C99.966611,6.74746196 100.96828,2.03961556 100.96828,2.03961556 C100.96828,2.03961556 101.435726,0.103054655 102.904841,0.303388555 C104.373957,0.503722455 103.739566,2.54045026 103.472454,3.70906466 C103.205342,4.87767896 100.834725,13.9594821 101.903172,22.3735054 C102.971619,30.7875288 103.205342,30.5871949 103.205342,30.5871949 C103.205342,30.5871949 103.739566,32.4569779 102.203673,32.7908677 C100.66778,33.1247575 100.133556,30.7875288 99.966611,29.8860263 C99.7996661,29.0179128 98.7979967,22.3735054 98.7979967,19.9694987 C98.7979967,17.5988811 98.7979967,17.1314353 98.7979967,17.1314353 C98.7979967,17.1314353 95.7595993,24.8442901 90.8180301,28.3835221 C85.8430718,31.9227542 80.9015025,33.8927041 76.2270451,33.8593151 C71.5525876,33.8259261 70.0166945,30.8209178 69.8497496,29.1180797 C69.3823038,25.1447909 73.8564274,21.7725038 78.263773,19.7023869 C81.5025042,18.1998827 85.0083472,17.2983802 88.5809683,17.4653251 C89.9165275,17.4987141 91.6527546,17.5654921 92.9883139,18.1331048" id="Path"></path>
                <path d="M113.055092,21.9728376 C113.055092,21.9728376 116.360601,28.4169111 121.602671,28.1831882 C126.844741,27.9160764 129.048414,24.944457 129.048414,24.944457 L129.081803,24.911068 C130.050083,23.3083969 131.552588,21.8726707 133.288815,20.4369445 C136.227045,18.0663268 139.732888,16.8309345 142.537563,16.9311014 C145.342237,17.0312684 147.445743,18.5003836 147.979967,19.2349412 C148.480801,19.9694987 148.113523,20.5037225 147.378965,21.271669 C146.611018,22.0396156 145.676127,21.405225 145.676127,21.405225 C145.676127,21.405225 144.240401,20.0362767 141.96995,19.8025538 C139.699499,19.568831 137.36227,20.6706674 135.492487,22.0730046 C133.589316,23.4419528 130.884808,26.3134053 131.018364,27.3818527 C131.185309,28.4503001 132.888147,28.3501331 132.888147,28.3501331 C138.263773,28.3167442 141.435726,24.8442901 141.435726,24.8442901 C141.435726,24.8442901 142.136895,24.0095655 143.071786,24.0429545 C143.973289,24.0763435 144.140234,25.1781799 144.140234,25.1781799 C144.140234,25.1781799 144.373957,27.7491315 144.407346,28.617245 C144.440735,29.4853585 144.006678,30.353472 142.904841,30.1865271 C141.836394,30.0195822 141.669449,28.8843568 141.535893,28.2165772 C141.402337,27.5487976 140.601002,28.0830213 139.632721,28.617245 C138.664441,29.1514687 135.125209,30.7875288 131.652755,30.8876957 C129.048414,30.9544737 128.280467,29.5521365 128.080134,28.8175789 C127.479132,29.1180797 123.873122,30.9544737 121.769616,30.9210847 C119.465776,30.8876957 115.058431,29.9194153 112.420701,26.3134053 C109.782972,22.7073952 110.250417,21.405225 110.851419,21.0045572 C111.519199,20.6372784 112.420701,20.8042233 113.055092,21.9728376" id="Path"></path>
                <path d="M27.21202,30.5871949 C27.21202,30.5871949 26.6777963,31.4219194 25.5759599,31.4886974 C24.5075125,31.5888644 23.672788,31.0880296 23.9398998,29.0846907 C24.2070117,27.0813518 26.1769616,19.7357759 28.5475793,14.4603168 C30.918197,9.18485766 35.6260434,3.80923156 38.263773,1.40522496 C40.9348915,-0.965392745 41.3021703,0.269999555 40.9682805,0.770834255 C40.6343907,1.27166896 37.2621035,4.44362226 35.7595993,6.51373906 C34.2570952,8.55046696 30.851419,15.3618193 29.6160267,18.8008844 C28.4140234,22.2065605 27.8797997,23.4085639 29.081803,22.6406173 C30.3171953,21.8726707 37.7295492,17.4987141 41.6026711,15.3284303 C45.475793,13.1247575 47.0784641,12.5571448 47.4791319,13.1915355 C47.8797997,13.8259261 46.8113523,14.3601498 44.9415693,15.5621532 C43.1051753,16.7641565 33.8898164,22.2399495 32.8881469,23.0412851 C31.8864775,23.8426206 31.6861436,23.9761765 32.721202,24.7441231 C33.7562604,25.5454587 36.8280467,28.9177458 45.0083472,31.2549745 C53.1552588,33.5922033 58.9649416,34.6940396 58.9649416,34.6940396 C58.9649416,34.6940396 60.8013356,34.8943735 60.6677796,35.4953752 C60.5342237,36.0963769 58.3639399,37.4653251 51.3522538,35.7624871 C44.3405676,34.093038 38.0634391,31.7558093 33.7228715,28.8843568 C29.3823038,26.0129044 28.1469115,24.1097325 28.1469115,24.1097325 C28.1469115,24.1097325 27.312187,26.9144069 27.1452421,27.6155755 C26.9782972,28.3167442 26.8447412,28.9845238 27.278798,29.0179128 C27.7796327,29.1180797 27.6794658,30.0529712 27.21202,30.5871949" id="Path"></path>
                <path d="M54.557596,28.3501331 C54.557596,28.3501331 52.8213689,28.4836891 52.687813,27.3818527 C52.5208681,26.3134053 55.2587646,23.4419528 57.1619366,22.0730046 C59.0651085,20.7040563 61.4023372,19.568831 63.639399,19.8025538 C65.9098497,20.0362767 67.345576,21.405225 67.345576,21.405225 C67.345576,21.405225 68.2804674,22.0062266 69.048414,21.271669 C69.8163606,20.5037225 70.1836394,19.9694987 69.6494157,19.2349412 C69.148581,18.5003836 67.0116861,17.0312684 64.2070117,16.9311014 C61.4023372,16.8309345 57.8964942,18.0663268 54.9582638,20.4369445 C52.0200334,22.8075622 49.7829716,25.2449578 49.6494157,28.4169111 C49.6494157,28.4169111 49.8163606,30.9878627 53.3222037,30.8876957 C56.8280467,30.7875288 60.3672788,29.1514687 61.3021703,28.617245 C62.2704508,28.0830213 63.0383973,27.5487976 63.2053422,28.2165772 C63.3388982,28.8843568 63.5058431,30.0195822 64.5742905,30.1865271 C65.6427379,30.353472 66.1101836,29.4853585 66.0767947,28.617245 C66.0434057,27.7491315 65.8096828,25.1781799 65.8096828,25.1781799 C65.8096828,25.1781799 65.6427379,24.0763435 64.7412354,24.0429545 C63.8397329,24.0095655 63.1051753,24.8442901 63.1051753,24.8442901 C63.1051753,24.8442901 59.933222,28.3167442 54.557596,28.3501331 L54.557596,28.3501331 Z" id="Path"></path>
                <path d="M13.4557596,24.8442901 C13.4557596,24.8442901 10.2838063,28.3167442 4.9081803,28.3501331 C4.9081803,28.3501331 3.17195326,28.4836891 3.03839733,27.3818527 C2.87145242,26.3134053 5.60934891,23.4419528 7.51252087,22.0730046 C9.41569282,20.7040563 11.7529215,19.568831 13.9899833,19.8025538 C16.2604341,20.0362767 17.6961603,21.405225 17.6961603,21.405225 C17.6961603,21.405225 18.6310518,22.0062266 19.3989983,21.271669 C20.1669449,20.5037225 20.5342237,19.9694987 20,19.2349412 C19.4991653,18.5003836 17.3622705,17.0312684 14.557596,16.9311014 C11.7529215,16.8309345 8.24707846,18.0663268 5.30884808,20.4369445 C2.3706177,22.8075622 0.13355593,25.2449578 0,28.4169111 C0,28.4169111 0.16694491,30.9878627 3.67278798,30.8876957 C7.17863105,30.7875288 10.7178631,29.1514687 11.6527546,28.617245 C12.6210351,28.0830213 13.3889816,27.5487976 13.5559265,28.2165772 C13.6894825,28.8843568 13.8564274,30.0195822 14.9248748,30.1865271 C15.9933222,30.353472 16.4607679,29.4853585 16.427379,28.617245 C16.39399,27.7491315 16.1602671,25.1781799 16.1602671,25.1781799 C16.1602671,25.1781799 15.9933222,24.0763435 15.0918197,24.0429545 C14.1903172,24.0095655 13.4557596,24.8442901 13.4557596,24.8442901" id="Path"></path>
            </g>
            <path d="M118.096828,52.3205342 C118.096828,52.3205342 119.265442,51.1185309 119.632721,51.2186978 C120,51.3188648 120.467446,52.0868114 120.934891,52.1202003 C121.402337,52.1535893 122.737896,52.5542571 122.404007,53.6560935 C122.070117,54.7579299 120.434057,54.9582638 119.465776,54.7245409 C118.530885,54.490818 117.462437,52.8547579 118.096828,52.3205342" id="Path" fill="#000000"></path>
            <g id="Group" transform="translate(96.451039, 20.684657) scale(-1, 1) translate(-96.451039, -20.684657) translate(77.888147, 0.000000)">
                <path d="M9.58263773,35.0584307 C9.58263773,35.1252087 15.6594324,41.903172 22.1035058,41.3355593 C28.3806344,41.0350584 32.5208681,35.6928214 32.8213689,35.3255426 C32.687813,35.4257095 31.8864775,35.9933222 30.4507513,36.5275459 C28.5475793,37.2621035 25.509182,37.9966611 21.5025042,37.6627713 C14.3906511,37.1285476 9.8163606,35.0250417 9.58263773,35.0584307 C9.54924875,35.0250417 9.54924875,35.0250417 9.58263773,35.0584307 Z" id="Path" fill="url(#radialGradient-1)"></path>
                <path d="M4.9081803,23.4390651 C4.9081803,23.5058431 9.84974958,33.1218698 17.7629382,35.0584307 C22.4707846,36.39399 26.8447412,35.3255426 29.6160267,34.2904841 C31.3188648,33.6560935 32.3873122,32.9883139 32.5876461,32.8881469 C32.4874791,32.9215359 32.2203673,32.9883139 31.7195326,33.0550918 C29.7829716,33.3555927 24.8080134,33.6227045 18.263773,30.918197 C9.84974958,27.5125209 5.07512521,23.4056761 4.9081803,23.4390651 C4.9081803,23.4056761 4.9081803,23.4390651 4.9081803,23.4390651 Z" id="Path" fill="url(#radialGradient-2)"></path>
                <path d="M0,1.16861436 L0,3.00500835 C0.56761269,7.34557596 2.70450751,17.4624374 10.0500835,23.5392321 C18.9983306,31.4524207 30.6510851,31.4524207 31.4524207,31.5191987 C30.7512521,31.3522538 22.2704508,28.8146912 13.2888147,19.0984975 C4.9081803,10.1502504 0.86811352,2.63772955 0,1.16861436 Z" id="Path" fill="url(#radialGradient-3)"></path>
                <path d="M7.278798,0 L7.24540902,0 C7.77963272,8.88146912 13.9565943,18.6644407 23.2721202,25.0417362 C23.3055092,25.0751252 23.3388982,25.0751252 23.3722871,25.1085142 C23.3722871,25.1085142 23.4056761,25.1085142 23.4056761,25.1419032 L23.4390651,25.1419032 C23.4390651,25.1419032 23.4724541,25.1419032 23.4724541,25.1752922 C23.639399,25.2754591 23.639399,25.2754591 23.5392321,25.2086811 C28.5141903,28.5475793 35.4257095,32.1202003 36.9949917,39.1986644 C37.5626043,35.4924875 36.2604341,31.2186978 33.5225376,27.21202 C31.5191987,24.2737896 28.7813022,21.4357262 25.509182,19.0317195 C20.6343907,15.4590985 16.39399,12.1869783 12.654424,7.74624374 C10.7512521,5.50918197 8.98163606,3.00500835 7.278798,0 Z" id="Path" fill="url(#linearGradient-4)"></path>
            </g>
            <g id="Group" transform="translate(32.888147, 0.000000)">
                <path d="M9.58263773,35.0584307 C9.58263773,35.1252087 15.6594324,41.903172 22.1035058,41.3355593 C28.3806344,41.0350584 32.5208681,35.6928214 32.8213689,35.3255426 C32.687813,35.4257095 31.8864775,35.9933222 30.4507513,36.5275459 C28.5475793,37.2621035 25.509182,37.9966611 21.5025042,37.6627713 C14.3906511,37.1285476 9.8163606,35.0250417 9.58263773,35.0584307 C9.54924875,35.0250417 9.54924875,35.0250417 9.58263773,35.0584307 Z" id="Path" fill="url(#radialGradient-1)"></path>
                <path d="M4.9081803,23.4390651 C4.9081803,23.5058431 9.84974958,33.1218698 17.7629382,35.0584307 C22.4707846,36.39399 26.8447412,35.3255426 29.6160267,34.2904841 C31.3188648,33.6560935 32.3873122,32.9883139 32.5876461,32.8881469 C32.4874791,32.9215359 32.2203673,32.9883139 31.7195326,33.0550918 C29.7829716,33.3555927 24.8080134,33.6227045 18.263773,30.918197 C9.84974958,27.5125209 5.07512521,23.4056761 4.9081803,23.4390651 C4.9081803,23.4056761 4.9081803,23.4390651 4.9081803,23.4390651 Z" id="Path" fill="url(#radialGradient-2)"></path>
                <path d="M0,1.16861436 L0,3.00500835 C0.56761269,7.34557596 2.70450751,17.4624374 10.0500835,23.5392321 C18.9983306,31.4524207 30.6510851,31.4524207 31.4524207,31.5191987 C30.7512521,31.3522538 22.2704508,28.8146912 13.2888147,19.0984975 C4.9081803,10.1502504 0.86811352,2.63772955 0,1.16861436 Z" id="Path" fill="url(#radialGradient-3)"></path>
                <path d="M7.278798,0 L7.24540902,0 C7.77963272,8.88146912 13.9565943,18.6644407 23.2721202,25.0417362 C23.3055092,25.0751252 23.3388982,25.0751252 23.3722871,25.1085142 C23.3722871,25.1085142 23.4056761,25.1085142 23.4056761,25.1419032 L23.4390651,25.1419032 C23.4390651,25.1419032 23.4724541,25.1419032 23.4724541,25.1752922 C23.639399,25.2754591 23.639399,25.2754591 23.5392321,25.2086811 C28.5141903,28.5475793 35.4257095,32.1202003 36.9949917,39.1986644 C37.5626043,35.4924875 36.2604341,31.2186978 33.5225376,27.21202 C31.5191987,24.2737896 28.7813022,21.4357262 25.509182,19.0317195 C20.6343907,15.4590985 16.39399,12.1869783 12.654424,7.74624374 C10.7512521,5.50918197 8.98163606,3.00500835 7.278798,0 Z" id="Path" fill="url(#linearGradient-4)"></path>
            </g>
        </g>
    </g>
</svg>